<?xml version="1.0" encoding="UTF-8"?>
<!DOCTYPE svg PUBLIC "-//W3C//DTD SVG 1.1//EN" "http://www.w3.org/Graphics/SVG/1.1/DTD/svg11.dtd">
<svg xmlns="http://www.w3.org/2000/svg" version="1.1" width="918px" height="513px" style="shape-rendering:geometricPrecision; text-rendering:geometricPrecision; image-rendering:optimizeQuality; fill-rule:evenodd; clip-rule:evenodd" xmlns:xlink="http://www.w3.org/1999/xlink">
<g><path style="opacity:1" fill="#fefefe" d="M 104.5,74.5 C 123.503,74.3334 142.503,74.5001 161.5,75C 181.809,76.4912 200.809,82.1579 218.5,92C 230.695,99.8869 237.695,111.054 239.5,125.5C 238.353,133.451 235.187,140.451 230,146.5C 209.374,167.392 185.874,184.225 159.5,197C 136.139,209.175 111.473,217.675 85.5,222.5C 87.4817,249.244 91.9817,275.578 99,301.5C 113.188,356.228 128.688,410.561 145.5,464.5C 123.827,463.176 102.16,461.676 80.5,460C 76.668,460.038 73.168,459.205 70,457.5C 63.6029,368.926 52.6029,280.926 37,193.5C 29.7536,160.015 22.5869,126.515 15.5,93C 17.0015,90.4102 19.3348,89.0769 22.5,89C 49.8403,83.3892 77.1736,78.5558 104.5,74.5 Z M 96.5,107.5 C 118.348,115.115 140.014,123.115 161.5,131.5C 159.378,134.124 157.045,136.624 154.5,139C 145.544,145.621 136.877,152.621 128.5,160C 121.527,165.637 114.027,170.47 106,174.5C 105.055,174.095 104.388,173.428 104,172.5C 101.289,152.316 98.4561,132.149 95.5,112C 95.6052,110.408 95.9386,108.908 96.5,107.5 Z"/></g>
<g><path style="opacity:1" fill="#fefefe" d="M 581.5,74.5 C 600.503,74.3334 619.503,74.5001 638.5,75C 661.161,75.825 681.828,82.4916 700.5,95C 719.781,112.132 720.948,130.299 704,149.5C 676.378,176.075 644.544,196.242 608.5,210C 604.056,211.389 599.723,213.056 595.5,215C 584.648,217.213 573.981,220.046 563.5,223.5C 562.778,232.19 563.278,240.857 565,249.5C 574.746,296.639 586.413,343.305 600,389.5C 606.881,414.357 614.381,439.024 622.5,463.5C 620.333,463.833 618.167,464.167 616,464.5C 593.184,462.54 570.351,460.874 547.5,459.5C 543.357,405.043 537.857,350.71 531,296.5C 520.53,227.372 507.697,158.705 492.5,90.5C 522.063,83.8516 551.729,78.5182 581.5,74.5 Z M 572.5,108.5 C 575.607,108.351 578.607,108.851 581.5,110C 600.573,116.746 619.573,123.579 638.5,130.5C 638.703,132.39 638.037,133.89 636.5,135C 626.876,142.289 617.542,149.955 608.5,158C 600.426,164.123 591.926,169.623 583,174.5C 581.39,171.403 580.39,168.069 580,164.5C 577.358,145.841 574.858,127.174 572.5,108.5 Z"/></g>
<g><path style="opacity:0.999" fill="#fefefe" d="M 332.5,135.5 C 339.3,134.938 345.8,135.938 352,138.5C 359.035,236.864 366.535,335.197 374.5,433.5C 374.473,436.089 374.139,438.589 373.5,441C 364.833,441.667 356.167,441.667 347.5,441C 345.939,440.682 344.772,439.849 344,438.5C 336.486,358.904 326.82,279.571 315,200.5C 310.737,179.956 307.237,159.456 304.5,139C 313.966,137.735 323.299,136.569 332.5,135.5 Z"/></g>
<g><path style="opacity:1" fill="#fefefe" d="M 781.5,135.5 C 788.906,135.152 796.239,135.652 803.5,137C 804.126,137.75 804.626,138.584 805,139.5C 812.353,239.846 819.853,340.179 827.5,440.5C 817.527,441.563 807.527,441.729 797.5,441C 796.874,440.25 796.374,439.416 796,438.5C 788.299,337.763 775.133,237.763 756.5,138.5C 765.006,137.791 773.339,136.791 781.5,135.5 Z"/></g>
<g><path style="opacity:0.999" fill="#fdfdfd" d="M 728.5,208.5 C 734.162,208.18 739.662,208.847 745,210.5C 746.964,230.47 748.464,250.47 749.5,270.5C 742.5,270.5 735.5,270.5 728.5,270.5C 726.591,250.574 724.258,230.74 721.5,211C 723.833,209.957 726.166,209.124 728.5,208.5 Z"/></g>
<g><path style="opacity:1" fill="#fefefe" d="M 269.5,209.5 C 277.167,209.5 284.833,209.5 292.5,209.5C 294.533,229.8 296.2,250.133 297.5,270.5C 290.167,270.5 282.833,270.5 275.5,270.5C 273.038,250.214 271.038,229.881 269.5,209.5 Z"/></g>
<g><path style="opacity:1" fill="#fefefe" d="M 254.5,210.5 C 256.144,210.286 257.644,210.62 259,211.5C 261.656,231.258 264.822,250.924 268.5,270.5C 267.619,271.971 266.286,272.804 264.5,273C 260.24,273.57 256.074,274.403 252,275.5C 250.092,272.785 248.759,269.785 248,266.5C 244.768,251.172 241.601,235.839 238.5,220.5C 238.551,218.9 238.884,217.4 239.5,216C 244.571,214.035 249.571,212.202 254.5,210.5 Z"/></g>
<g><path style="opacity:0.999" fill="#fdfdfd" d="M 706.5,210.5 C 708.467,210.261 710.301,210.594 712,211.5C 715.161,231.797 717.995,252.13 720.5,272.5C 714.941,273.343 709.441,274.343 704,275.5C 699.582,260.088 695.915,244.422 693,228.5C 692.006,223.882 691.506,219.215 691.5,214.5C 696.809,213.924 701.809,212.591 706.5,210.5 Z"/></g>
<g><path style="opacity:0.997" fill="#fdfdfd" d="M 416.5,214.5 C 424.104,214.54 431.604,215.206 439,216.5C 439.412,237.17 439.246,257.836 438.5,278.5C 431.519,277.646 424.519,276.979 417.5,276.5C 417.007,258.13 416.341,239.797 415.5,221.5C 416.374,219.253 416.708,216.92 416.5,214.5 Z"/></g>
<g><path style="opacity:0.999" fill="#fefefe" d="M 869.5,214.5 C 877.154,215.07 884.821,215.404 892.5,215.5C 891.883,236.494 891.55,257.494 891.5,278.5C 884.544,277.422 877.544,276.756 870.5,276.5C 870.033,257.154 869.366,237.82 868.5,218.5C 868.623,217.075 868.957,215.742 869.5,214.5 Z"/></g>
<g><path style="opacity:0.999" fill="#fdfdfd" d="M 396.5,215.5 C 399.833,215.5 403.167,215.5 406.5,215.5C 407.167,236.167 407.833,256.833 408.5,277.5C 402.811,277.532 397.145,277.866 391.5,278.5C 388.564,258.267 386.564,237.934 385.5,217.5C 389.36,217.192 393.026,216.525 396.5,215.5 Z"/></g>
<g><path style="opacity:1" fill="#fdfdfd" d="M 853.5,215.5 C 855.467,215.261 857.301,215.594 859,216.5C 860.479,236.809 861.312,257.143 861.5,277.5C 855.516,278.074 849.516,278.407 843.5,278.5C 842.02,258.104 840.02,237.771 837.5,217.5C 843.021,217.218 848.354,216.551 853.5,215.5 Z"/></g>
<g><path style="opacity:1" fill="#fefefe" d="M 284.5,291.5 C 290.262,291.149 295.928,291.649 301.5,293C 304.557,304.623 306.724,316.456 308,328.5C 312.762,370.349 316.262,412.182 318.5,454C 306.91,456.38 295.244,458.213 283.5,459.5C 276.11,420.161 268.61,380.828 261,341.5C 258.289,326.901 256.122,312.234 254.5,297.5C 264.713,295.913 274.713,293.913 284.5,291.5 Z"/></g>
<g><path style="opacity:1" fill="#fefefe" d="M 740.5,291.5 C 744.902,291.228 749.235,291.561 753.5,292.5C 755.686,297.233 757.186,302.233 758,307.5C 763.032,356.153 767.865,404.82 772.5,453.5C 761.673,455.067 750.84,456.734 740,458.5C 738.342,458.325 737.009,457.658 736,456.5C 725.656,404.594 715.823,352.594 706.5,300.5C 706.608,299.558 706.941,298.725 707.5,298C 718.59,295.6 729.59,293.433 740.5,291.5 Z"/></g>
<g><path style="opacity:0.999" fill="#fefefe" d="M 425.5,298.5 C 429.785,299.208 434.118,299.708 438.5,300C 440.723,300.652 441.89,302.152 442,304.5C 443.392,357.154 443.892,409.821 443.5,462.5C 432.326,463.389 421.159,464.389 410,465.5C 409.228,465.355 408.561,465.022 408,464.5C 401.151,410.023 396.318,355.356 393.5,300.5C 404.329,300.017 414.996,299.35 425.5,298.5 Z"/></g>
<g><path style="opacity:1" fill="#fefefe" d="M 866.5,298.5 C 875.857,298.35 885.191,298.683 894.5,299.5C 895.177,304.801 895.677,310.134 896,315.5C 896.667,364.5 896.667,413.5 896,462.5C 884.25,463.646 872.416,464.313 860.5,464.5C 854.596,410.278 849.93,355.944 846.5,301.5C 853.267,300.278 859.934,299.278 866.5,298.5 Z"/></g>
</svg>
